{"title":"Pyaar tune kya kiya - Telefilm - HDTVRip x264 720p  AC3 TaRa.mkv","uid":15483639,"size":419456096,"categoryP":"video","categoryS":"tv_shows","magnet":"?xt=urn:btih:dd8f9c1bf3cc136939a98f331d2c51bea267f8c0&amp;dn=Pyaar+tune+kya+kiya+-+Telefilm+-+HDTVRip+x264+720p++AC3+TaRa.mkv&amp;tr=udp%3A%2F%2Ftracker.leechers-paradise.org%3A6969&amp;tr=udp%3A%2F%2Fzer0day.ch%3A1337&amp;tr=udp%3A%2F%2Fopen.demonii.com%3A1337&amp;tr=udp%3A%2F%2Ftracker.coppersurfer.tk%3A6969&amp;tr=udp%3A%2F%2Fexodus.desync.com%3A6969","seeders":0,"leechers":1,"uploader":"MdTaRa","files":1,"time":1470288875,"description":"=====================================================================\r\nGeneral\r\nPyaar tune kya kiya - Telefilm - HDTVRip x264 720p  AC3 TaRa.mkv\r\nFormat                      : Matroska\r\nFormat version              : Version 4 / Version 2\r\nFile size                   : 400 MiB\r\nDuration                    : 41 min\r\nOverall bit rate            : 1 346 kb/s\r\n=======================================================================\r\nVideo\r\nID                          : 1\r\nFormat                      : AVC\r\nFormat/Info                 : Advanced Video Codec\r\nFormat profile              :   \r\nFormat settings, CABAC      : Yes\r\nFormat settings, ReFrames   : 3 frames\r\nCodec ID                    : V_MPEG4/ISO/AVC\r\nDuration                    : 41 min\r\nBit rate                    : 1 096 kb/s\r\nWidth                       : 732 pixels\r\nHeight                      : 412 pixels\r\nDisplay aspect ratio        : 16:9\r\nFrame rate mode             : Constant\r\nFrame rate                  : 25.000 FPS\r\nColor space                 : YUV\r\nChroma subsampling          : 4:2:0\r\nBit depth                   : 8 bits\r\nScan type                   : Progressive\r\nBits/(Pixel*Frame)          : 0.145\r\nStream size                 : 323 MiB (81%)\r\nTitle                       : .....::::: TaRa :::::..... \r\nLanguage                    : Hindi\r\nDefault                     : Yes\r\nForced                      : No\r\n=================================================================\r\nAudio\r\nID                          : 2\r\nFormat                      : AC-3\r\nFormat/Info                 : Audio Coding 3\r\nMode extension              : CM (complete main)\r\nFormat settings, Endianness : Big\r\nCodec ID                    : A_AC3\r\nDuration                    : 41 min\r\nBit rate mode               : Constant\r\nBit rate                    : 256 kb/s\r\nChannel(s)                  : 2 channels\r\nChannel positions           : Front: L R\r\nSampling rate               : 48.0 kHz\r\nFrame rate                  : 31.250 FPS (1536 spf)\r\nCompression mode            : Lossy\r\nStream size                 : 76.1 MiB (19%)\r\nTitle                       : .....::::: TaRa :::::.....\r\nLanguage                    : Hindi\r\nDefault                     : Yes\r\nForced                      : No\r\n============================================================================ \nhttp://imgur.com/c8z61yG \nhttp://imgur.com/wkDf5n6","torrent":{"xt":"urn:btih:dd8f9c1bf3cc136939a98f331d2c51bea267f8c0","amp;dn":"Pyaar+tune+kya+kiya+-+Telefilm+-+HDTVRip+x264+720p++AC3+TaRa.mkv","amp;tr":["udp%3A%2F%2Ftracker.leechers-paradise.org%3A6969","udp%3A%2F%2Fzer0day.ch%3A1337","udp%3A%2F%2Fopen.demonii.com%3A1337","udp%3A%2F%2Ftracker.coppersurfer.tk%3A6969","udp%3A%2F%2Fexodus.desync.com%3A6969"],"infoHash":"dd8f9c1bf3cc136939a98f331d2c51bea267f8c0","infoHashBuffer":{"type":"Buffer","data":[221,143,156,27,243,204,19,105,57,169,143,51,29,44,81,190,162,103,248,192]},"announce":[],"urlList":[]}}